<svg width="24" height="24" viewBox="0 0 24 24" fill="none" xmlns="http://www.w3.org/2000/svg">
<path d="M5 19.1115C5 16.6984 6.69732 14.643 9.00404 14.2627L9.21182 14.2284C11.0589 13.9239 12.9411 13.9239 14.7882 14.2284L14.996 14.2627C17.3027 14.643 19 16.6984 19 19.1115C19 20.1545 18.1815 21 17.1719 21H6.82813C5.81848 21 5 20.1545 5 19.1115Z"
    fill="#2D8F56" fill-opacity="0.36"/>
<path d="M16.0834 6.9375C16.0834 9.11212 14.2552 10.875 12 10.875C9.74486 10.875 7.91669 9.11212 7.91669 6.9375C7.91669 4.76288 9.74486 3 12 3C14.2552 3 16.0834 4.76288 16.0834 6.9375Z" fill="#2D8F56" fill-opacity="0.36"/>
<path d="M9.21182 14.2284L9.08982 13.4884L9.08981 13.4884L9.21182 14.2284ZM14.7882 14.2284L14.9102 13.4884L14.9102 13.4884L14.7882 14.2284ZM14.996 14.2627L14.874 15.0027L14.874 15.0027L14.996 14.2627ZM9.00404 14.2627L9.12604 15.0027L9.12605 15.0027L9.00404 14.2627ZM9.12605 15.0027L9.33383 14.9684L9.08981 13.4884L8.88203 13.5226L9.12605 15.0027ZM14.6662 14.9684L14.874 15.0027L15.118 13.5226L14.9102 13.4884L14.6662 14.9684ZM17.1719 20.25H6.82813V21.75H17.1719V20.25ZM9.33382 14.9684C11.1001 14.6772 12.8999 14.6772 14.6662 14.9684L14.9102 13.4884C12.9823 13.1705 11.0177 13.1705 9.08982 13.4884L9.33382 14.9684ZM4.25 19.1115C4.25 20.5455 5.38147 21.75 6.82813 21.75V20.25C6.25549 20.25 5.75 19.7634 5.75 19.1115H4.25ZM18.25 19.1115C18.25 19.7634 17.7445 20.25 17.1719 20.25V21.75C18.6185 21.75 19.75 20.5455 19.75 19.1115H18.25ZM19.75 19.1115C19.75 16.349 17.8042 13.9655 15.118 13.5226L14.874 15.0027C16.8012 15.3204 18.25 17.0477 18.25 19.1115H19.75ZM5.75 19.1115C5.75 17.0477 7.19882 15.3204 9.12604 15.0027L8.88204 13.5226C6.19583 13.9655 4.25 16.349 4.25 19.1115H5.75ZM15.3334 6.9375C15.3334 8.67243 13.8669 10.125 12 10.125V11.625C14.6435 11.625 16.8334 9.55181 16.8334 6.9375H15.3334ZM12 10.125C10.1331 10.125 8.66669 8.67243 8.66669 6.9375H7.16669C7.16669 9.55181 9.35659 11.625 12 11.625V10.125ZM8.66669 6.9375C8.66669 5.20257 10.1331 3.75 12 3.75V2.25C9.35659 2.25 7.16669 4.32319 7.16669 6.9375H8.66669ZM12 3.75C13.8669 3.75 15.3334 5.20257 15.3334 6.9375H16.8334C16.8334 4.32319 14.6435 2.25 12 2.25V3.75Z" fill="white"/>
</svg>
