<svg width="24" height="24" viewBox="0 0 24 24" fill="none" xmlns="http://www.w3.org/2000/svg">
<path d="M9.69403 8.66988L13.6109 4.75306C14.093 4.27088 14.747 4 15.4289 4C16.8489 4 18 5.15112 18 6.5711C18 7.253 17.7291 7.90697 17.2469 8.38914L13.3301 12.306C11.6273 14.0088 9.49375 15.2168 7.15752 15.8008L6.40049 15.9901C6.1646 16.0491 5.95094 15.8354 6.00991 15.5995L6.19917 14.8425C6.78322 12.5063 7.99123 10.3727 9.69403 8.66988Z" fill="#389B61" fill-opacity="0.15"/>
<path d="M13.6109 4.75306L14.1412 5.28339L13.6109 4.75306ZM9.69403 8.66988L10.2244 9.20021L9.69403 8.66988ZM17.2469 8.38914L16.7166 7.85881V7.85881L17.2469 8.38914ZM13.3301 12.306L12.7998 11.7756L13.3301 12.306ZM7.15752 15.8008L6.97562 15.0732H6.97562L7.15752 15.8008ZM6.40049 15.9901L6.58239 16.7177H6.58239L6.40049 15.9901ZM6.00991 15.5995L6.73752 15.7814L6.73752 15.7814L6.00991 15.5995ZM6.19917 14.8425L6.92678 15.0244H6.92678L6.19917 14.8425ZM13.0805 4.22273L9.1637 8.13955L10.2244 9.20021L14.1412 5.28339L13.0805 4.22273ZM16.7166 7.85881L12.7998 11.7756L13.8604 12.8363L17.7773 8.91947L16.7166 7.85881ZM6.97562 15.0732L6.21858 15.2625L6.58239 16.7177L7.33943 16.5284L6.97562 15.0732ZM6.73752 15.7814L6.92678 15.0244L5.47156 14.6606L5.2823 15.4176L6.73752 15.7814ZM6.21859 15.2625C6.53199 15.1841 6.81587 15.468 6.73752 15.7814L5.2823 15.4176C5.08601 16.2028 5.79722 16.914 6.58239 16.7177L6.21859 15.2625ZM12.7998 11.7756C11.1931 13.3823 9.17997 14.5221 6.97562 15.0732L7.33943 16.5284C9.80752 15.9114 12.0615 14.6352 13.8604 12.8363L12.7998 11.7756ZM9.1637 8.13955C7.36478 9.93847 6.08859 12.1925 5.47156 14.6606L6.92678 15.0244C7.47786 12.82 8.61768 10.8069 10.2244 9.20021L9.1637 8.13955ZM15.4289 3.25C14.5481 3.25 13.7034 3.5999 13.0805 4.22273L14.1412 5.28339C14.4827 4.94187 14.9459 4.75 15.4289 4.75V3.25ZM17.25 6.5711C17.25 7.05409 17.0581 7.51729 16.7166 7.85881L17.7773 8.91947C18.4001 8.29665 18.75 7.45191 18.75 6.5711H17.25ZM18.75 6.5711C18.75 4.73691 17.2631 3.25 15.4289 3.25V4.75C16.4347 4.75 17.25 5.56533 17.25 6.5711H18.75ZM16.2628 8.42457C15.7382 8.59944 14.9629 8.3564 14.3033 7.69673C13.6436 7.03706 13.4006 6.26178 13.5754 5.73717L12.1524 5.26283C11.7213 6.55626 12.3872 7.90203 13.2426 8.75739C14.098 9.61276 15.4437 10.2787 16.7372 9.8476L16.2628 8.42457Z" fill="black"/>
<path d="M19 20H5" stroke="black" stroke-width="1.5" stroke-linecap="round" stroke-linejoin="round"/>
</svg>
