<svg width="20" height="20" viewBox="0 0 20 20" fill="none" xmlns="http://www.w3.org/2000/svg">
<path d="M1.35288 6.95043C2.00437 4.17301 4.17301 2.00437 6.95043 1.35288C8.95626 0.882375 11.0437 0.882374 13.0496 1.35288C15.827 2.00437 17.9956 4.17301 18.6471 6.95044C19.1176 8.95626 19.1176 11.0437 18.6471 13.0496C17.9956 15.827 15.827 17.9956 13.0496 18.6471C11.0437 19.1176 8.95626 19.1176 6.95044 18.6471C4.17301 17.9956 2.00437 15.827 1.35288 13.0496C0.882374 11.0437 0.882374 8.95626 1.35288 6.95043Z" fill="#2D8F56" fill-opacity="0.15"/>
<path d="M1.35288 13.0496L0.622697 13.2209L1.35288 13.0496ZM1.35288 6.95043L0.622697 6.77915L1.35288 6.95043ZM18.6471 6.95044L17.9169 7.12171L18.6471 6.95044ZM18.6471 13.0496L17.9169 12.8783L18.6471 13.0496ZM13.0496 18.6471L12.8783 17.9169L13.0496 18.6471ZM6.95044 18.6471L6.77916 19.3773L6.95044 18.6471ZM6.95043 1.35288L6.77916 0.622696L6.95043 1.35288ZM13.0496 1.35288L12.8783 2.08306L13.0496 1.35288ZM8.55589 10.6028L9.26915 10.8346C9.37292 10.5154 9.25191 10.1661 8.97288 9.97941L8.55589 10.6028ZM7.84196 12.7993L8.55523 13.0311L7.84196 12.7993ZM11.4441 10.6028L11.0271 9.97941C10.7481 10.1661 10.6271 10.5154 10.7308 10.8346L11.4441 10.6028ZM12.158 12.7993L11.4448 13.0311L12.158 12.7993ZM2.08306 12.8783C1.63898 10.9851 1.63898 9.01488 2.08306 7.12171L0.622697 6.77915C0.125768 8.89763 0.125768 11.1024 0.622697 13.2209L2.08306 12.8783ZM17.9169 7.12171C18.361 9.01488 18.361 10.9851 17.9169 12.8783L19.3773 13.2208C19.8742 11.1024 19.8742 8.89764 19.3773 6.77916L17.9169 7.12171ZM12.8783 17.9169C10.9851 18.361 9.01488 18.361 7.12171 17.9169L6.77916 19.3773C8.89764 19.8742 11.1024 19.8742 13.2208 19.3773L12.8783 17.9169ZM7.12171 2.08306C9.01488 1.63898 10.9851 1.63898 12.8783 2.08306L13.2208 0.622696C11.1024 0.125768 8.89763 0.125768 6.77916 0.622696L7.12171 2.08306ZM7.12171 17.9169C4.62161 17.3305 2.6695 15.3784 2.08306 12.8783L0.622697 13.2209C1.33924 16.2756 3.72441 18.6608 6.77916 19.3773L7.12171 17.9169ZM13.2208 19.3773C16.2756 18.6608 18.6608 16.2756 19.3773 13.2208L17.9169 12.8783C17.3305 15.3784 15.3784 17.3305 12.8783 17.9169L13.2208 19.3773ZM12.8783 2.08306C15.3784 2.6695 17.3305 4.62161 17.9169 7.12171L19.3773 6.77916C18.6608 3.72441 16.2756 1.33924 13.2208 0.622696L12.8783 2.08306ZM6.77916 0.622696C3.72441 1.33924 1.33924 3.72441 0.622697 6.77915L2.08306 7.12171C2.6695 4.6216 4.62161 2.6695 7.12171 2.08306L6.77916 0.622696ZM8.14932 8.43959C8.14932 7.41749 8.9779 6.58891 10 6.58891V5.08891C8.14947 5.08891 6.64932 6.58906 6.64932 8.43959H8.14932ZM10 6.58891C11.0221 6.58891 11.8507 7.41749 11.8507 8.43959H13.3507C13.3507 6.58906 11.8505 5.08891 10 5.08891V6.58891ZM8.97288 9.97941C8.47473 9.6462 8.14932 9.08075 8.14932 8.43959H6.64932C6.64932 9.60243 7.2423 10.6265 8.13889 11.2262L8.97288 9.97941ZM7.84262 10.371L7.12869 12.5674L8.55523 13.0311L9.26915 10.8346L7.84262 10.371ZM8.83129 14.9111H11.1687V13.4111H8.83129V14.9111ZM11.8507 8.43959C11.8507 9.08075 11.5253 9.6462 11.0271 9.97941L11.8611 11.2262C12.7577 10.6265 13.3507 9.60243 13.3507 8.43959H11.8507ZM12.8713 12.5674L12.1574 10.371L10.7308 10.8346L11.4448 13.0311L12.8713 12.5674ZM11.1687 14.9111C12.385 14.9111 13.2473 13.7242 12.8713 12.5674L11.4448 13.0311C11.5057 13.2186 11.3659 13.4111 11.1687 13.4111V14.9111ZM7.12869 12.5674C6.75271 13.7242 7.61496 14.9111 8.83129 14.9111V13.4111C8.63407 13.4111 8.49427 13.2186 8.55523 13.0311L7.12869 12.5674Z" fill="black"/>
</svg>
