<svg width="24" height="24" viewBox="0 0 24 24" fill="none" xmlns="http://www.w3.org/2000/svg">
<path d="M17 12C17 14.7614 14.7614 17 12 17C9.23858 17 7 14.7614 7 12C7 9.23858 9.23858 7 12 7C14.7614 7 17 9.23858 17 12Z" fill="#2D8F56" fill-opacity="0.15" stroke="black" stroke-width="1.5"/>
<path d="M17.7814 5.15801C17.4885 5.4509 17.4885 5.92577 17.7814 6.21867C18.0743 6.51156 18.5491 6.51156 18.842 6.21867L17.7814 5.15801ZM18.9589 6.10176C19.2518 5.80887 19.2518 5.334 18.959 5.0411C18.6661 4.74821 18.1912 4.7482 17.8983 5.0411L18.9589 6.10176ZM5.04105 17.8984C4.74819 18.1913 4.74824 18.6662 5.04117 18.959C5.3341 19.2519 5.80897 19.2518 6.10183 18.9589L5.04105 17.8984ZM6.21871 18.842C6.51157 18.5491 6.51151 18.0742 6.21859 17.7813C5.92566 17.4885 5.45079 17.4885 5.15793 17.7815L6.21871 18.842ZM11.25 3.07394C11.25 3.48815 11.5858 3.82394 12 3.82394C12.4142 3.82394 12.75 3.48815 12.75 3.07394H11.25ZM12.75 3C12.75 2.58579 12.4142 2.25 12 2.25C11.5858 2.25 11.25 2.58579 11.25 3H12.75ZM11.25 21C11.25 21.4142 11.5858 21.75 12 21.75C12.4142 21.75 12.75 21.4142 12.75 21H11.25ZM12.75 20.9261C12.75 20.5119 12.4142 20.1761 12 20.1761C11.5858 20.1761 11.25 20.5119 11.25 20.9261H12.75ZM3.07394 12.75C3.48815 12.75 3.82394 12.4142 3.82394 12C3.82394 11.5858 3.48815 11.25 3.07394 11.25V12.75ZM3 11.25C2.58579 11.25 2.25 11.5858 2.25 12C2.25 12.4142 2.58579 12.75 3 12.75V11.25ZM21 12.75C21.4142 12.75 21.75 12.4142 21.75 12C21.75 11.5858 21.4142 11.25 21 11.25V12.75ZM20.9261 11.25C20.5119 11.25 20.1761 11.5858 20.1761 12C20.1761 12.4142 20.5119 12.75 20.9261 12.75V11.25ZM5.15798 6.21867C5.45088 6.51156 5.92575 6.51156 6.21864 6.21867C6.51154 5.92578 6.51154 5.4509 6.21864 5.15801L5.15798 6.21867ZM6.10173 5.0411C5.80884 4.7482 5.33397 4.7482 5.04107 5.0411C4.74818 5.33399 4.74818 5.80887 5.04107 6.10176L6.10173 5.0411ZM17.8983 18.959C18.1912 19.2518 18.6661 19.2518 18.9589 18.9589C19.2518 18.6659 19.2518 18.1911 18.9588 17.8982L17.8983 18.959ZM18.842 17.7813C18.5491 17.4885 18.0742 17.4885 17.7813 17.7814C17.4885 18.0744 17.4885 18.5492 17.7814 18.8421L18.842 17.7813ZM18.842 6.21867L18.9589 6.10176L17.8983 5.0411L17.7814 5.15801L18.842 6.21867ZM6.10183 18.9589L6.21871 18.842L5.15793 17.7815L5.04105 17.8984L6.10183 18.9589ZM12.75 3.07394V3H11.25V3.07394H12.75ZM12.75 21V20.9261H11.25V21H12.75ZM3.07394 11.25H3V12.75H3.07394V11.25ZM21 11.25H20.9261V12.75H21V11.25ZM6.21864 5.15801L6.10173 5.0411L5.04107 6.10176L5.15798 6.21867L6.21864 5.15801ZM18.9588 17.8982L18.842 17.7813L17.7814 18.8421L17.8983 18.959L18.9588 17.8982Z" fill="black"/>
</svg>
