<svg width="24" height="24" viewBox="0 0 24 24" fill="none" xmlns="http://www.w3.org/2000/svg">
<path d="M8.95043 20.6471C6.17301 19.9956 4.00437 17.827 3.35288 15.0496C2.88237 13.0437 2.88237 10.9563 3.35288 8.95043C4.00437 6.17301 6.17301 4.00437 8.95044 3.35288C10.9563 2.88237 13.0437 2.88237 15.0496 3.35288C17.827 4.00437 19.9956 6.17301 20.6471 8.95043C21.1176 10.9563 21.1176 13.0437 20.6471 15.0496C19.9956 17.827 17.827 19.9956 15.0496 20.6471C13.0437 21.1176 10.9563 21.1176 8.95043 20.6471Z" fill="#389B61" fill-opacity="0.15"/>
<path d="M15.0496 20.6471L14.8783 19.9169L15.0496 20.6471ZM8.95043 20.6471L8.77915 21.3773L8.95043 20.6471ZM8.95044 3.35288L9.12171 4.08306L8.95044 3.35288ZM15.0496 3.35288L14.8783 4.08306L15.0496 3.35288ZM20.6471 8.95043L19.9169 9.12171L20.6471 8.95043ZM20.6471 15.0496L21.3773 15.2208L20.6471 15.0496ZM3.35288 15.0496L4.08306 14.8783L3.35288 15.0496ZM3.35288 8.95043L2.6227 8.77915L3.35288 8.95043ZM14.8783 19.9169C12.9851 20.361 11.0149 20.361 9.12171 19.9169L8.77915 21.3773C10.8976 21.8742 13.1024 21.8742 15.2209 21.3773L14.8783 19.9169ZM9.12171 4.08306C11.0149 3.63898 12.9851 3.63898 14.8783 4.08306L15.2208 2.62269C13.1024 2.12577 10.8976 2.12577 8.77916 2.6227L9.12171 4.08306ZM19.9169 9.12171C20.361 11.0149 20.361 12.9851 19.9169 14.8783L21.3773 15.2208C21.8742 13.1024 21.8742 10.8976 21.3773 8.77916L19.9169 9.12171ZM4.08306 14.8783C3.63898 12.9851 3.63898 11.0149 4.08306 9.12171L2.6227 8.77915C2.12577 10.8976 2.12577 13.1024 2.6227 15.2208L4.08306 14.8783ZM19.9169 14.8783C19.3305 17.3784 17.3784 19.3305 14.8783 19.9169L15.2209 21.3773C18.2756 20.6608 20.6608 18.2756 21.3773 15.2208L19.9169 14.8783ZM21.3773 8.77916C20.6608 5.72441 18.2756 3.33924 15.2208 2.62269L14.8783 4.08306C17.3784 4.6695 19.3305 6.6216 19.9169 9.12171L21.3773 8.77916ZM4.08306 9.12171C4.6695 6.6216 6.62161 4.6695 9.12171 4.08306L8.77916 2.6227C5.72441 3.33924 3.33924 5.72441 2.6227 8.77915L4.08306 9.12171ZM2.6227 15.2208C3.33924 18.2756 5.72441 20.6608 8.77915 21.3773L9.12171 19.9169C6.6216 19.3305 4.6695 17.3784 4.08306 14.8783L2.6227 15.2208Z" fill="black"/>
<circle cx="12" cy="15.5" r="1" fill="black"/>
<path d="M10 10V9.5C10 8.39543 10.8954 7.5 12 7.5V7.5V7.5C13.1046 7.5 14 8.39543 14 9.5V9.62132C14 10.1839 13.7765 10.7235 13.3787 11.1213L12 12.5" stroke="black" stroke-width="1.5" stroke-linecap="round" stroke-linejoin="round"/>
</svg>
