<svg width="16" height="20" viewBox="0 0 16 20" fill="none" xmlns="http://www.w3.org/2000/svg">
<path d="M1 17.1115C1 14.6984 2.69732 12.643 5.00404 12.2627L5.21182 12.2284C7.05892 11.9239 8.94108 11.9239 10.7882 12.2284L10.996 12.2627C13.3027 12.643 15 14.6984 15 17.1115C15 18.1545 14.1815 19 13.1719 19H2.82813C1.81848 19 1 18.1545 1 17.1115Z" fill="#389B61" fill-opacity="0.15"/>
<path d="M12.0834 4.9375C12.0834 7.11212 10.2552 8.875 8.00002 8.875C5.74486 8.875 3.91669 7.11212 3.91669 4.9375C3.91669 2.76288 5.74486 1 8.00002 1C10.2552 1 12.0834 2.76288 12.0834 4.9375Z" fill="#389B61" fill-opacity="0.15"/>
<path d="M5.21182 12.2284L5.08982 11.4884L5.08981 11.4884L5.21182 12.2284ZM10.7882 12.2284L10.9102 11.4884L10.9102 11.4884L10.7882 12.2284ZM10.996 12.2627L10.874 13.0027L10.874 13.0027L10.996 12.2627ZM5.00404 12.2627L5.12604 13.0027L5.12605 13.0027L5.00404 12.2627ZM5.12605 13.0027L5.33383 12.9684L5.08981 11.4884L4.88203 11.5226L5.12605 13.0027ZM10.6662 12.9684L10.874 13.0027L11.118 11.5226L10.9102 11.4884L10.6662 12.9684ZM13.1719 18.25H2.82813V19.75H13.1719V18.25ZM5.33382 12.9684C7.10013 12.6772 8.89987 12.6772 10.6662 12.9684L10.9102 11.4884C8.98229 11.1705 7.0177 11.1705 5.08982 11.4884L5.33382 12.9684ZM0.25 17.1115C0.25 18.5455 1.38147 19.75 2.82813 19.75V18.25C2.25549 18.25 1.75 17.7634 1.75 17.1115H0.25ZM14.25 17.1115C14.25 17.7634 13.7445 18.25 13.1719 18.25V19.75C14.6185 19.75 15.75 18.5455 15.75 17.1115H14.25ZM15.75 17.1115C15.75 14.349 13.8042 11.9655 11.118 11.5226L10.874 13.0027C12.8012 13.3204 14.25 15.0477 14.25 17.1115H15.75ZM1.75 17.1115C1.75 15.0477 3.19882 13.3204 5.12604 13.0027L4.88204 11.5226C2.19583 11.9655 0.25 14.349 0.25 17.1115H1.75ZM11.3334 4.9375C11.3334 6.67243 9.86691 8.125 8.00002 8.125V9.625C10.6435 9.625 12.8334 7.55181 12.8334 4.9375H11.3334ZM8.00002 8.125C6.13313 8.125 4.66669 6.67243 4.66669 4.9375H3.16669C3.16669 7.55181 5.35659 9.625 8.00002 9.625V8.125ZM4.66669 4.9375C4.66669 3.20257 6.13313 1.75 8.00002 1.75V0.25C5.35659 0.25 3.16669 2.32319 3.16669 4.9375H4.66669ZM8.00002 1.75C9.86691 1.75 11.3334 3.20257 11.3334 4.9375H12.8334C12.8334 2.32319 10.6435 0.25 8.00002 0.25V1.75Z" fill="white"/>
</svg>
