<svg width="20" height="20" viewBox="0 0 20 20" fill="none" xmlns="http://www.w3.org/2000/svg">
<path d="M7.65394 2.58646C8.5321 0.471179 11.4679 0.47118 12.3461 2.58646L12.9577 4.05983C13.3174 4.9261 14.107 5.52663 15.0227 5.63041L16.7297 5.82385C18.8853 6.06813 19.7756 8.7755 18.2013 10.2988L16.752 11.7012C16.1148 12.3177 15.8333 13.2258 16.0069 14.1045L16.3568 15.8758C16.7997 18.118 14.3977 19.8109 12.5018 18.5927L11.3571 17.8572C10.5276 17.3242 9.47236 17.3242 8.64291 17.8572L7.49819 18.5927C5.60234 19.8109 3.20031 18.118 3.64323 15.8758L3.99315 14.1045C4.16673 13.2258 3.88518 12.3177 3.24798 11.7012L1.79871 10.2988C0.224381 8.7755 1.11472 6.06813 3.27034 5.82385L4.97726 5.63041C5.89305 5.52663 6.68263 4.9261 7.04226 4.05983L7.65394 2.58646Z" fill="#389B61" fill-opacity="0.15"/>
<path d="M7.04226 4.05983L6.34959 3.77226V3.77226L7.04226 4.05983ZM4.97726 5.63041L5.06171 6.37564L4.97726 5.63041ZM3.27034 5.82385L3.18589 5.07862L3.27034 5.82385ZM1.79871 10.2988L2.32024 9.75985L1.79871 10.2988ZM3.99315 14.1045L3.25737 13.9591L3.99315 14.1045ZM3.24798 11.7012L3.76951 11.1622L3.24798 11.7012ZM7.49819 18.5927L7.09276 17.9617H7.09276L7.49819 18.5927ZM3.64323 15.8758L4.37902 16.0212L3.64323 15.8758ZM11.3571 17.8572L10.9517 18.4881H10.9517L11.3571 17.8572ZM8.64291 17.8572L9.04834 18.4881H9.04834L8.64291 17.8572ZM12.5018 18.5927L12.9072 17.9617H12.9072L12.5018 18.5927ZM16.3568 15.8758L17.0925 15.7305L16.3568 15.8758ZM16.752 11.7012L17.2736 12.2402L16.752 11.7012ZM16.0069 14.1045L15.2711 14.2498L16.0069 14.1045ZM18.2013 10.2988L17.6798 9.75985L18.2013 10.2988ZM16.7297 5.82385L16.8141 5.07862L16.7297 5.82385ZM12.9577 4.05983L12.2651 4.3474L12.9577 4.05983ZM15.0227 5.63041L14.9383 6.37564L15.0227 5.63041ZM12.3461 2.58646L13.0387 2.2989L12.3461 2.58646ZM7.65394 2.58646L8.34662 2.87403V2.87403L7.65394 2.58646ZM11.6534 2.87403L12.2651 4.3474L13.6504 3.77226L13.0387 2.2989L11.6534 2.87403ZM17.6798 9.75985L16.2305 11.1622L17.2736 12.2402L18.7228 10.8378L17.6798 9.75985ZM12.9072 17.9617L11.7625 17.2262L10.9517 18.4881L12.0964 19.2237L12.9072 17.9617ZM7.73494 4.3474L8.34662 2.87403L6.96126 2.29889L6.34959 3.77226L7.73494 4.3474ZM3.35479 6.56908L5.06171 6.37564L4.89281 4.88518L3.18589 5.07862L3.35479 6.56908ZM14.9383 6.37564L16.6452 6.56908L16.8141 5.07862L15.1072 4.88518L14.9383 6.37564ZM15.2711 14.2498L15.621 16.0212L17.0925 15.7305L16.7426 13.9591L15.2711 14.2498ZM8.23748 17.2262L7.09276 17.9617L7.90362 19.2237L9.04834 18.4881L8.23748 17.2262ZM4.37902 16.0212L4.72893 14.2498L3.25737 13.9591L2.90745 15.7305L4.37902 16.0212ZM3.76951 11.1622L2.32024 9.75985L1.27718 10.8378L2.72645 12.2402L3.76951 11.1622ZM6.34959 3.77226C6.09216 4.39234 5.53182 4.81277 4.89281 4.88518L5.06171 6.37564C6.25427 6.2405 7.27311 5.45985 7.73494 4.34739L6.34959 3.77226ZM3.18589 5.07862C0.376424 5.39699 -0.735237 8.89058 1.27718 10.8378L2.32024 9.75985C1.184 8.66041 1.85301 6.73926 3.35479 6.56908L3.18589 5.07862ZM4.72893 14.2498C4.95122 13.1245 4.59186 11.9579 3.76951 11.1622L2.72645 12.2402C3.17849 12.6776 3.38223 13.327 3.25737 13.9591L4.72893 14.2498ZM7.09276 17.9617C5.78868 18.7997 4.05601 17.6563 4.37902 16.0212L2.90745 15.7305C2.34461 18.5797 5.416 20.8221 7.90362 19.2237L7.09276 17.9617ZM11.7625 17.2262C10.6861 16.5345 9.31392 16.5345 8.23748 17.2262L9.04834 18.4881C9.6308 18.1139 10.3692 18.1139 10.9517 18.4881L11.7625 17.2262ZM12.0964 19.2237C14.584 20.8221 17.6554 18.5797 17.0925 15.7305L15.621 16.0212C15.944 17.6563 14.2113 18.7997 12.9072 17.9617L12.0964 19.2237ZM16.2305 11.1622C15.4081 11.9579 15.0488 13.1245 15.2711 14.2498L16.7426 13.9591C16.6178 13.327 16.8215 12.6776 17.2736 12.2402L16.2305 11.1622ZM18.7228 10.8378C20.7352 8.89058 19.6236 5.39699 16.8141 5.07862L16.6452 6.56908C18.147 6.73926 18.816 8.66041 17.6798 9.75985L18.7228 10.8378ZM12.2651 4.3474C12.7269 5.45985 13.7457 6.2405 14.9383 6.37564L15.1072 4.88518C14.4682 4.81277 13.9078 4.39234 13.6504 3.77226L12.2651 4.3474ZM13.0387 2.2989C11.9046 -0.432964 8.09539 -0.432966 6.96126 2.29889L8.34662 2.87403C8.96881 1.37532 11.0312 1.37532 11.6534 2.87403L13.0387 2.2989Z" fill="black"/>
</svg>
